<svg xmlns="http://www.w3.org/2000/svg" xmlns:xlink="http://www.w3.org/1999/xlink" width="372" height="61.804"><defs><linearGradient id="a" y1=".5" x2="1" y2=".5" gradientUnits="objectBoundingBox"><stop offset="0" stop-color="#163f64"/><stop offset=".399" stop-color="#fff594"/><stop offset=".512" stop-color="#fff594"/><stop offset="1" stop-color="#163f64"/></linearGradient><linearGradient id="b" y1=".5" y2=".5" xlink:href="#a"/><linearGradient id="c" y1=".5" y2=".5" xlink:href="#a"/><linearGradient id="d" y1=".5" y2=".5" xlink:href="#a"/></defs><g data-name="Group 487"><path data-name="Path 281" d="M30.905 0A31.122 31.122 0 000 30.448h4.46A26.627 26.627 0 0130.905 4.51a26.627 26.627 0 0126.446 25.938h4.459A31.122 31.122 0 0030.905 0z" fill="url(#a)"/><path data-name="Path 282" d="M21.95 38.538h4.466a12.507 12.507 0 0124.978 0h4.472a16.969 16.969 0 00-33.916 0" transform="translate(-8.006 -8.09)" fill="url(#b)"/><path data-name="Path 283" d="M11.06 34.522h4.46a19.425 19.425 0 0138.833 0h4.466a23.885 23.885 0 00-47.759 0" transform="translate(-4.034 -4.074)" fill="url(#c)"/><path data-name="Path 284" d="M43.309 52.236a12.5 12.5 0 01-24.756 0h-4.485a17.148 17.148 0 0012.2 14.585 14.878 14.878 0 014.758-.705 14.981 14.981 0 014.682.673 17.168 17.168 0 0012.1-14.554h-4.492zm6.969 0a19.42 19.42 0 01-38.693 0H7.112a24.144 24.144 0 0018.27 21.58 13.475 13.475 0 015.641-1.061 13.53 13.53 0 015.6 1.035A24.146 24.146 0 0054.75 52.243h-4.472zm7.045 0a26.617 26.617 0 01-26.389 24.826A26.622 26.622 0 014.546 52.236H.08a31.216 31.216 0 0024.267 28.619c1.067-1.061 3.678-1.785 6.677-1.785s5.584.705 6.683 1.741A31.241 31.241 0 0061.789 52.23h-4.466z" transform="translate(-.029 -19.051)" fill="url(#d)"/><g data-name="Group 486" fill="#1bb4d9"><path data-name="Path 285" d="M77.806 14.878a1.2 1.2 0 001.175-1.175 1.181 1.181 0 00-1.175-1.156 1.16 1.16 0 00-1.156 1.156 1.177 1.177 0 001.156 1.175z"/><path data-name="Path 286" d="M74.756 14.878a1.207 1.207 0 001.2-1.175 1.191 1.191 0 00-1.2-1.156 1.165 1.165 0 00-1.175 1.156 1.193 1.193 0 001.175 1.175z"/><path data-name="Path 287" d="M94.875 30.257a1.181 1.181 0 00-1.175-1.156 1.166 1.166 0 000 2.331 1.181 1.181 0 001.175-1.175z"/><path data-name="Path 288" d="M97.906 30.257a1.177 1.177 0 00-1.175-1.156 1.16 1.16 0 00-1.156 1.156 1.177 1.177 0 001.156 1.175 1.2 1.2 0 001.175-1.175z"/><path data-name="Path 289" d="M109.214 16.891a7.031 7.031 0 00-5 2.217l1.537 1.423a4.676 4.676 0 013.462-1.741 2.892 2.892 0 012.96 1.9 10.567 10.567 0 01.476 3.729v.813h-9.294v-.044h-4.186v.044h-.68a1.977 1.977 0 01-2.236-2.236v-6.1l-2.128.635v5.406a2.017 2.017 0 01-2.262 2.306h-.947v-.044H83.09v.044h-.813a2 2 0 01-2.217-2.306v-6.046h-4.591c-2.871 0-4.32 1.671-4.32 5.019s1.448 5.177 4.32 5.177c1.7 0 2.808-.521 3.322-1.582.476 1.061 1.607 1.582 3.373 1.582h9.827a4.274 4.274 0 003.214-1.2 4.169 4.169 0 003.145 1.2h16.485v-2.668a11.433 11.433 0 00-.883-5.044c-.883-1.652-2.465-2.49-4.752-2.49zm-31.3 5.019a5 5 0 01-.451 2.42 2.358 2.358 0 01-3.71 0 5 5 0 01-.451-2.42 4.821 4.821 0 01.451-2.395 1.97 1.97 0 011.855-.883h2.306z"/><path data-name="Path 290" d="M132.775 30.257a1.177 1.177 0 00-1.171-1.156 1.16 1.16 0 00-1.156 1.156 1.177 1.177 0 001.156 1.175 1.2 1.2 0 001.171-1.175z"/><path data-name="Path 291" d="M128.57 29.101a1.148 1.148 0 00-1.156 1.156 1.16 1.16 0 001.156 1.175 1.166 1.166 0 100-2.331z"/><path data-name="Path 292" d="M163.509 23.086V12.547l-2.147.635v9.7a2 2 0 01-2.22 2.307h-3.3v-8.3l-2.147.635v7.665h-4.523v-7.306l-2.147.635v6.67h-4.473v-6.333l-2.147.61v5.724h-6.363v.044h-.68a1.977 1.977 0 01-2.236-2.236v-6.1l-2.128.635v5.406a2.017 2.017 0 01-2.262 2.306h-.947V25.2h-5.743a.968.968 0 01-1.104-1.091v-11.6l-2.147.68v10.99a2.726 2.726 0 002.986 2.916h7.1a4.274 4.274 0 003.214-1.2 4.169 4.169 0 003.145 1.2h26.033a4.293 4.293 0 003.1-1.131 3.893 3.893 0 001.156-2.871z"/><path data-name="Path 293" d="M167.603 12.502l-2.147.68v13.912h2.147z"/><path data-name="Path 294" d="M177.281 27.098h8.03c2.643 0 4.25-1.512 4.25-3.888v-6.312l-2.1.565v5.52a1.982 1.982 0 01-2.262 2.217h-7.623a1.971 1.971 0 01-2.236-2.217v-4.23l-2.128 2.173v2.287a3.762 3.762 0 004.072 3.888z"/><path data-name="Path 295" d="M182.916 18.34a1.175 1.175 0 10-1.156-1.175 1.194 1.194 0 001.156 1.175z"/><path data-name="Path 296" d="M179.883 18.34a1.175 1.175 0 10-1.156-1.175 1.181 1.181 0 001.156 1.175z"/><path data-name="Path 297" d="M194.49 27.094h21.23l-1.607-1.9H208.3v-4.23a2.1 2.1 0 012.173-2.262 2.335 2.335 0 011.83.972l1.607-1.448a4.462 4.462 0 00-7.763 3.1v3.869h-11.395a.968.968 0 01-1.112-1.086v-11.6l-2.147.68v10.99a2.726 2.726 0 002.986 2.916z"/><path data-name="Path 298" d="M222.08 17.273a3.969 3.969 0 00-3.481 1.607 5.966 5.966 0 00-.927 3.462 5.881 5.881 0 00.927 3.437 3.952 3.952 0 003.481 1.626 4.313 4.313 0 002.147-.54 2.662 2.662 0 01-2.713 2.693 7.329 7.329 0 01-3.6-.794l.953 2.084a5.083 5.083 0 002.649.591 4.483 4.483 0 003.665-1.537 5.509 5.509 0 001.2-3.684c0-.229.025-.7.07-1.423.025-.654.025-1.22.025-1.652a8.574 8.574 0 00-.75-4 3.825 3.825 0 00-3.64-1.855zm0 8.252c-1.512 0-2.281-1.061-2.281-3.189s.769-3.214 2.281-3.214 2.262 1.061 2.262 3.214-.744 3.189-2.262 3.189z"/><path data-name="Path 299" d="M253.963 14.878a1.2 1.2 0 001.175-1.175 1.22 1.22 0 00-1.175-1.2 1.183 1.183 0 00-1.156 1.2 1.161 1.161 0 001.156 1.175z"/><path data-name="Path 300" d="M255.5 12.235a1.194 1.194 0 001.175-1.156 1.211 1.211 0 00-1.175-1.175 1.193 1.193 0 00-1.175 1.175 1.181 1.181 0 001.175 1.156z"/><path data-name="Path 301" d="M255.844 13.703a1.175 1.175 0 002.35 0 1.22 1.22 0 00-1.175-1.2 1.2 1.2 0 00-1.175 1.2z"/><path data-name="Path 302" d="M281.076 25.665a3.637 3.637 0 002.916 1.417l1.448.006a4.293 4.293 0 003.1-1.131 3.893 3.893 0 001.156-2.871V12.547l-2.147.635v9.7a2 2 0 01-2.217 2.306h-1.334v.044a2.483 2.483 0 01-2.757-2.217 4.949 4.949 0 00-1.264-2.941 4.627 4.627 0 00-3.278-1.016 4.139 4.139 0 00-4.568 3.958c-.178 1.448-1.086 2.173-2.687 2.173h-6.079v-8.3l-2.147.635v7.668h-4.523v-7.309l-2.147.635v6.67h-4.479v-6.333l-2.147.61v5.724H235.28v-8.3l-2.147.635v8.957a2.784 2.784 0 01-2.941 3.075 6.914 6.914 0 01-3.437-.858l1.016 2.128a4.473 4.473 0 002.42.61 4.7 4.7 0 005.063-4.345h34.323a3.535 3.535 0 002.8-1.131 4.3 4.3 0 004.32 2.713 4.254 4.254 0 004.39-3.011zm-4.39 1.2c-1.607 0-2.395-1-2.395-3.011s.794-3.011 2.395-3.011 2.376 1 2.376 3.011-.794 3.012-2.376 3.012z"/><path data-name="Path 303" d="M291.634 27.094h2.154V12.502l-2.154.68z"/><path data-name="Path 304" d="M302.992 14.878a1.207 1.207 0 001.2-1.175 1.191 1.191 0 00-1.2-1.156 1.165 1.165 0 00-1.175 1.156 1.193 1.193 0 001.175 1.175z"/><path data-name="Path 305" d="M303.71 27.089c1.7 0 2.808-.521 3.322-1.582.476 1.061 1.607 1.582 3.373 1.582h24.667c0-2.554-.025-4-.07-4.32a5.6 5.6 0 00-1.874-3.729 5.672 5.672 0 00-3.932-1.423 7.6 7.6 0 00-1 .07l4.885-5.133h-2.8l-7.032 7.325 1.467 1.379a4.984 4.984 0 013.958-1.766 4.249 4.249 0 013.03 1.086 3.752 3.752 0 011.086 2.192 16.254 16.254 0 01.089 2.465h-10.086v-.044h-11.466v.044h-.813a2 2 0 01-2.217-2.306v-6.04h-4.593c-2.871 0-4.32 1.671-4.32 5.019s1.448 5.177 4.32 5.177zm-1.715-7.579a1.963 1.963 0 011.855-.883h2.306v3.278a5 5 0 01-.451 2.42 2.358 2.358 0 01-3.71 0 5 5 0 01-.451-2.42 4.821 4.821 0 01.451-2.39z"/><path data-name="Path 306" d="M306.045 14.878a1.2 1.2 0 001.175-1.175 1.185 1.185 0 00-1.175-1.156 1.165 1.165 0 00-1.156 1.156 1.177 1.177 0 001.156 1.175z"/><path data-name="Path 307" d="M343.856 27.094h23.809c2.6 0 4.25-1.563 4.25-3.888v-6.352l-2.147.654v5.476a1.968 1.968 0 01-2.217 2.217h-2.306V17.87l-2.147.635v6.74h-4.442v-6.377l-2.147.61v5.724h-12.638v-8.3l-2.147.635v8.957a2.781 2.781 0 01-2.941 3.075 6.914 6.914 0 01-3.437-.858l1.016 2.128a4.473 4.473 0 002.42.61 4.7 4.7 0 005.063-4.345z"/><path data-name="Path 308" d="M364.409 13.703a1.177 1.177 0 001.156 1.175 1.2 1.2 0 001.175-1.175 1.22 1.22 0 00-1.175-1.2 1.183 1.183 0 00-1.156 1.2z"/><path data-name="Path 309" d="M364.066 12.235a1.194 1.194 0 001.175-1.156 1.211 1.211 0 00-1.175-1.175 1.193 1.193 0 00-1.175 1.175 1.177 1.177 0 001.175 1.156z"/><path data-name="Path 310" d="M362.528 14.878a1.2 1.2 0 001.175-1.175 1.22 1.22 0 00-1.175-1.2 1.183 1.183 0 00-1.156 1.2 1.145 1.145 0 001.156 1.175z"/><path data-name="Path 311" d="M81.847 35.524H71.206v2.109h4.155v12.216h2.331V37.633h4.155z"/><path data-name="Path 312" d="M90.251 41.07a4.883 4.883 0 00-1.645-.953 6 6 0 00-1.931-.318 6.231 6.231 0 00-1.931.3 4.981 4.981 0 00-1.69.927 4.673 4.673 0 00-1.194 1.588 5.187 5.187 0 00-.457 2.249 5.38 5.38 0 00.438 2.249 4.71 4.71 0 001.169 1.607 4.839 4.839 0 001.658.972 5.792 5.792 0 001.912.33 6.053 6.053 0 001.925-.318 4.758 4.758 0 002.865-2.573 5.981 5.981 0 00.032-4.479 4.558 4.558 0 00-1.14-1.581zm-.927 5.209a3 3 0 01-.673 1 2.637 2.637 0 01-.959.591 3.28 3.28 0 01-1.093.2 3.128 3.128 0 01-1.093-.2 2.637 2.637 0 01-.959-.591 2.935 2.935 0 01-.673-1 3.55 3.55 0 01-.254-1.4 3.355 3.355 0 01.267-1.391 2.757 2.757 0 011.683-1.537 3.42 3.42 0 011.124-.184 3.017 3.017 0 011.086.2 2.554 2.554 0 01.934.584 2.851 2.851 0 01.642.972 3.461 3.461 0 01.248 1.359 3.639 3.639 0 01-.254 1.4z"/><path data-name="Path 313" d="M103.56 48.394a.462.462 0 01-.318-.2.941.941 0 01-.133-.438 7.578 7.578 0 01-.032-.737v-7.036h-2.233v5.647a2.538 2.538 0 01-.718 1.893 2.428 2.428 0 01-1.779.705 1.953 1.953 0 01-1.563-.673 2.688 2.688 0 01-.565-1.861v-5.7h-2.245v5.7a6.885 6.885 0 00.2 1.69 3.774 3.774 0 00.623 1.372 2.966 2.966 0 001.137.921 4.028 4.028 0 001.728.337 5.233 5.233 0 001.976-.381 2.788 2.788 0 001.442-1.379 1.9 1.9 0 00.3 1.175 1.392 1.392 0 00.756.5 2.737 2.737 0 001 .064c.362-.038.7-.089 1.01-.146l-.019-1.455a2.077 2.077 0 01-.567.002z"/><path data-name="Path 314" d="M111.59 39.799a4.064 4.064 0 00-.908.1 3.646 3.646 0 00-.851.3 2.6 2.6 0 00-.692.508 1.913 1.913 0 00-.451.75 1.636 1.636 0 00-.337-.953 1.74 1.74 0 00-.737-.521 2.822 2.822 0 00-.978-.165 5.006 5.006 0 00-1.093.121l.019 1.512a1.752 1.752 0 01.616.051.542.542 0 01.318.235.959.959 0 01.114.413q.019.248.019.572v7.121h2.211v-5.7a2.509 2.509 0 01.2-1.035 1.968 1.968 0 01.553-.724 2.274 2.274 0 01.807-.419 3.386 3.386 0 01.953-.133 3.492 3.492 0 011.963.591l.553-1.925a3.5 3.5 0 00-1.067-.544 3.7 3.7 0 00-1.207-.165z"/><path data-name="Path 315" d="M116.659 35.632a1.46 1.46 0 00-.927.324 1.169 1.169 0 00-.419.985 1.206 1.206 0 00.432 1 1.528 1.528 0 00.94.33 1.371 1.371 0 00.9-.337 1.2 1.2 0 00.413-.991 1.191 1.191 0 00-.413-.985 1.443 1.443 0 00-.921-.324z"/><path data-name="Rectangle 283" d="M115.534 39.99h2.23v9.859h-2.23z"/><path data-name="Path 316" d="M127.554 44.71a4.491 4.491 0 00-1.3-.451c-.489-.1-1-.178-1.512-.248a8.574 8.574 0 01-1.747-.356.85.85 0 01-.6-.826.927.927 0 01.146-.584 1.22 1.22 0 01.457-.419 2.856 2.856 0 01.667-.254 3 3 0 01.756-.089 4.759 4.759 0 01.788.064 2.494 2.494 0 01.718.216 1.5 1.5 0 01.521.4.947.947 0 01.2.616h1.956a2.382 2.382 0 00-.3-1.29 2.752 2.752 0 00-.908-.927 4.339 4.339 0 00-1.353-.565 7.046 7.046 0 00-1.626-.184 6.687 6.687 0 00-1.556.184 4.243 4.243 0 00-1.34.565 3.057 3.057 0 00-.94.953 2.509 2.509 0 00-.356 1.372 2.11 2.11 0 00.419 1.328 2.7 2.7 0 001.023.769 5.57 5.57 0 001.391.4c.508.083 1.016.159 1.525.222a6.182 6.182 0 011.594.381.938.938 0 01.616.934 1.273 1.273 0 01-.235.737 1.481 1.481 0 01-.553.451 2.516 2.516 0 01-.75.222 5.934 5.934 0 01-.819.064 3.724 3.724 0 01-.8-.089 2.479 2.479 0 01-.705-.28 1.734 1.734 0 01-.521-.457 1.213 1.213 0 01-.222-.667h-2.194a2.986 2.986 0 00.47 1.525 3.223 3.223 0 001.035.972 4.149 4.149 0 001.41.515 9 9 0 001.607.146 7.343 7.343 0 001.594-.172 4.148 4.148 0 001.372-.553 3.072 3.072 0 00.959-.959 2.556 2.556 0 00.368-1.4 2.484 2.484 0 00-.349-1.4 2.523 2.523 0 00-.908-.826z"/><path data-name="Path 317" d="M136.886 48.198a3.6 3.6 0 01-.87.114 1.709 1.709 0 01-1.277-.489 2.524 2.524 0 01-.483-1.76v-4.46h3.418v-1.594h-3.418V36.96h-1.963l-.222 3.049h-2.008v1.455l2.007.146v4.5a5.579 5.579 0 00.254 1.81 3.286 3.286 0 00.718 1.22 2.763 2.763 0 001.118.686 4.5 4.5 0 001.429.216 6.572 6.572 0 001.207-.114 10.213 10.213 0 001.29-.337l-.222-1.677c-.343.121-.667.222-.972.3z"/><path data-name="Rectangle 284" d="M139.941 39.99h2.23v9.859h-2.23z"/><path data-name="Path 318" d="M141.066 35.632a1.46 1.46 0 00-.927.324 1.169 1.169 0 00-.419.985 1.206 1.206 0 00.432 1 1.528 1.528 0 00.94.33 1.371 1.371 0 00.9-.337 1.2 1.2 0 00.413-.991 1.191 1.191 0 00-.413-.985 1.443 1.443 0 00-.921-.324z"/><path data-name="Path 319" d="M151.267 47.727a3.079 3.079 0 01-1.588.381 2.887 2.887 0 01-1.093-.216 2.841 2.841 0 01-.959-.623 3.131 3.131 0 01-.673-1 3.465 3.465 0 01-.254-1.391 3.224 3.224 0 01.267-1.372 2.827 2.827 0 01.705-.953 2.973 2.973 0 01.991-.572 3.435 3.435 0 011.124-.2 3.127 3.127 0 011.512.324 2.222 2.222 0 011.023 1.245h2.128a4.364 4.364 0 00-.667-1.614 4.093 4.093 0 00-1.086-1.105 4.551 4.551 0 00-1.378-.635 6.12 6.12 0 00-1.575-.2 6.221 6.221 0 00-1.925.3 4.759 4.759 0 00-2.871 2.522 5.119 5.119 0 00-.457 2.242 5.261 5.261 0 00.451 2.249 4.756 4.756 0 001.188 1.607 4.955 4.955 0 001.671.972 5.73 5.73 0 001.893.324 5.889 5.889 0 001.614-.216 4.568 4.568 0 001.423-.667 4.317 4.317 0 001.118-1.156 4.76 4.76 0 00.673-1.69h-2.147a2.519 2.519 0 01-1.093 1.423z"/><path data-name="Path 320" d="M164.513 43.5h5.971v-2.1h-5.971v-3.786h6.321V35.53h-8.716v14.319h8.836v-2.173h-6.441z"/><path data-name="Path 321" d="M183.443 48.261a1.069 1.069 0 01-.216-.769v-3.519a5.71 5.71 0 00-.2-1.69 3.42 3.42 0 00-.718-1.321 3.334 3.334 0 00-1.239-.858 4.88 4.88 0 00-3.678.114 2.853 2.853 0 00-1.359 1.359 1.662 1.662 0 00-.286-1 1.642 1.642 0 00-.75-.572 2.844 2.844 0 00-1.042-.184 5 5 0 00-1.175.146l.017 1.426a2.291 2.291 0 01.686.019.491.491 0 01.337.248 1.092 1.092 0 01.114.508c.006.216.013.489.013.819v6.854h2.23v-5.73a2.38 2.38 0 01.72-1.862 2.538 2.538 0 011.772-.654 2.3 2.3 0 011.677.642 2.386 2.386 0 01.673 1.81v3.519a3.146 3.146 0 00.254 1.391 1.645 1.645 0 00.718.75 2.278 2.278 0 001.067.235 6.824 6.824 0 001.321-.146v-1.41c-.476.057-.788.013-.927-.133z"/><path data-name="Path 322" d="M191.912 48.198a3.6 3.6 0 01-.87.114 1.709 1.709 0 01-1.277-.489 2.524 2.524 0 01-.483-1.76v-4.46h3.418v-1.594h-3.418V36.96h-1.963l-.222 3.049h-2.008v1.455l2.007.146v4.5a5.579 5.579 0 00.254 1.81 3.286 3.286 0 00.718 1.22 2.783 2.783 0 001.112.686 4.5 4.5 0 001.429.216 6.572 6.572 0 001.207-.114 10.5 10.5 0 001.29-.337l-.222-1.677c-.343.121-.667.222-.972.3z"/><path data-name="Path 323" d="M199.985 46.025a5.913 5.913 0 001.372-.2 3.684 3.684 0 001.2-.534 2.936 2.936 0 00.858-.889 2.6 2.6 0 00.375-1.271 2.718 2.718 0 00-.349-1.563 3.086 3.086 0 00-1.023-1.042 4.395 4.395 0 00-1.442-.572 6.924 6.924 0 00-1.607-.152 6 6 0 00-1.88.337 4.825 4.825 0 00-1.588.921 4.457 4.457 0 00-1.105 1.506 5.078 5.078 0 00-.438 2.084 5.819 5.819 0 00.318 2.319 4.507 4.507 0 001.112 1.709 4.673 4.673 0 001.8 1.042 6.738 6.738 0 002.376.3 9.034 9.034 0 001.779-.172 6.669 6.669 0 001.668-.577l-.064-1.76a8.215 8.215 0 01-1.525.521 7.036 7.036 0 01-1.728.216 5.054 5.054 0 01-1.493-.165 3.192 3.192 0 01-1.169-.572 2.577 2.577 0 01-.75-.959 3.089 3.089 0 01-.235-1.353 6.066 6.066 0 001.614.635 6.75 6.75 0 001.9.184zm-3.354-2.312a2.51 2.51 0 01.985-1.614 3.132 3.132 0 011.779-.534 3.746 3.746 0 01.775.083 2.836 2.836 0 01.75.267 1.528 1.528 0 01.54.483 1.126 1.126 0 01.184.724 1.046 1.046 0 01-.229.642 1.61 1.61 0 01-.5.419 2.167 2.167 0 01-.654.235 3.267 3.267 0 01-.686.07 6.5 6.5 0 01-1.582-.2 3.861 3.861 0 01-1.359-.584z"/><path data-name="Path 324" d="M211.338 39.799a4.064 4.064 0 00-.908.1 3.645 3.645 0 00-.851.3 2.6 2.6 0 00-.692.508 1.913 1.913 0 00-.451.75 1.636 1.636 0 00-.337-.953 1.74 1.74 0 00-.737-.521 2.822 2.822 0 00-.978-.165 5.006 5.006 0 00-1.093.121l.019 1.512a1.752 1.752 0 01.616.051.542.542 0 01.318.235.959.959 0 01.114.413q.019.248.019.572v7.121h2.211v-5.7a2.509 2.509 0 01.2-1.035 1.968 1.968 0 01.553-.724 2.274 2.274 0 01.807-.419 3.386 3.386 0 01.953-.133 3.492 3.492 0 011.963.591l.553-1.925a3.5 3.5 0 00-1.067-.534 3.7 3.7 0 00-1.207-.165z"/><path data-name="Path 325" d="M224.15 41.305a4.068 4.068 0 00-1.4-1.093 4.422 4.422 0 00-1.963-.407 4.162 4.162 0 00-1.982.489 3.122 3.122 0 00-1.391 1.493 2.258 2.258 0 00-.254-1.175 1.591 1.591 0 00-.667-.616 2.088 2.088 0 00-.927-.184 5.17 5.17 0 00-1.035.114v1.512a.983.983 0 01.623.064.658.658 0 01.3.381 1.922 1.922 0 01.1.616c.006.241.013.489.013.75v11.638h2.065v-6.384a2.583 2.583 0 001.354 1.243 5.535 5.535 0 001.88.3 4.235 4.235 0 001.931-.432 4.153 4.153 0 001.379-1.137 4.733 4.733 0 00.819-1.639 7.053 7.053 0 00.267-1.95 6.851 6.851 0 00-.28-1.963 4.562 4.562 0 00-.839-1.607zm-1.258 4.866a3 3 0 01-.5 1.042 2.33 2.33 0 01-.851.692 2.662 2.662 0 01-1.207.254 2.34 2.34 0 01-1.143-.267 2.483 2.483 0 01-.819-.724 3.189 3.189 0 01-.483-1.074 5.312 5.312 0 01-.152-1.29 3.4 3.4 0 01.654-2.179 2.33 2.33 0 011.944-.826 2.5 2.5 0 012.026.858 3.4 3.4 0 01.7 2.211 4.957 4.957 0 01-.165 1.3z"/><path data-name="Path 326" d="M232.879 39.799a4.064 4.064 0 00-.908.1 3.646 3.646 0 00-.851.3 2.6 2.6 0 00-.692.508 1.913 1.913 0 00-.451.75 1.636 1.636 0 00-.337-.953 1.74 1.74 0 00-.737-.521 2.822 2.822 0 00-.978-.165 5.006 5.006 0 00-1.093.121l.019 1.512a1.752 1.752 0 01.616.051.542.542 0 01.318.235.959.959 0 01.114.413q.019.248.019.572v7.121h2.211v-5.7a2.509 2.509 0 01.2-1.035 1.969 1.969 0 01.553-.724 2.274 2.274 0 01.807-.419 3.386 3.386 0 01.953-.133 3.492 3.492 0 011.963.591l.553-1.925a3.5 3.5 0 00-1.067-.534 3.555 3.555 0 00-1.207-.165z"/><path data-name="Path 327" d="M237.948 35.632a1.49 1.49 0 00-.934.324 1.169 1.169 0 00-.419.985 1.206 1.206 0 00.432 1 1.528 1.528 0 00.94.33 1.371 1.371 0 00.9-.337 1.2 1.2 0 00.407-.991 1.188 1.188 0 00-.407-.985 1.443 1.443 0 00-.921-.324z"/><path data-name="Rectangle 285" d="M236.824 39.99h2.23v9.859h-2.23z"/><path data-name="Path 328" d="M248.843 44.71a4.491 4.491 0 00-1.3-.451c-.489-.1-1-.178-1.512-.248a8.574 8.574 0 01-1.747-.356.85.85 0 01-.6-.826.927.927 0 01.146-.584 1.219 1.219 0 01.457-.419 2.855 2.855 0 01.667-.254 3 3 0 01.756-.089 4.759 4.759 0 01.788.064 2.494 2.494 0 01.718.216 1.5 1.5 0 01.521.4.913.913 0 01.2.616h1.963a2.382 2.382 0 00-.3-1.29 2.752 2.752 0 00-.908-.927 4.338 4.338 0 00-1.353-.565 7.046 7.046 0 00-1.626-.184 6.687 6.687 0 00-1.556.184 4.243 4.243 0 00-1.34.565 3.057 3.057 0 00-.94.953 2.509 2.509 0 00-.356 1.372 2.11 2.11 0 00.419 1.328 2.7 2.7 0 001.023.769 5.571 5.571 0 001.391.4 44.18 44.18 0 001.525.222 6.182 6.182 0 011.595.381.938.938 0 01.616.934 1.32 1.32 0 01-.235.737 1.482 1.482 0 01-.553.451 2.515 2.515 0 01-.75.222 5.933 5.933 0 01-.819.064 3.724 3.724 0 01-.8-.089 2.478 2.478 0 01-.705-.28 1.734 1.734 0 01-.521-.457 1.165 1.165 0 01-.222-.667h-2.202a2.986 2.986 0 00.47 1.525 3.223 3.223 0 001.035.972 4.149 4.149 0 001.41.515 9 9 0 001.607.146 7.343 7.343 0 001.595-.172 4.147 4.147 0 001.372-.553 3.072 3.072 0 00.959-.959 2.61 2.61 0 00.368-1.4 2.3 2.3 0 00-1.258-2.23z"/><path data-name="Path 329" d="M257.406 46.025a5.913 5.913 0 001.372-.2 3.591 3.591 0 001.194-.534 2.936 2.936 0 00.858-.889 2.6 2.6 0 00.381-1.271 2.718 2.718 0 00-.349-1.563 3.086 3.086 0 00-1.023-1.042 4.395 4.395 0 00-1.442-.572 6.925 6.925 0 00-1.607-.152 6 6 0 00-1.88.337 4.825 4.825 0 00-1.588.921 4.456 4.456 0 00-1.105 1.506 5.077 5.077 0 00-.438 2.084 5.708 5.708 0 00.318 2.319 4.507 4.507 0 001.112 1.709 4.673 4.673 0 001.8 1.042 6.738 6.738 0 002.376.3 9.034 9.034 0 001.779-.172 6.67 6.67 0 001.677-.584l-.064-1.76a8.216 8.216 0 01-1.525.521 7.036 7.036 0 01-1.728.216 5.053 5.053 0 01-1.493-.165 3.191 3.191 0 01-1.169-.572 2.577 2.577 0 01-.75-.959 3.089 3.089 0 01-.235-1.353 6.066 6.066 0 001.614.635 6.751 6.751 0 001.9.184zm-3.354-2.312a2.51 2.51 0 01.985-1.614 3.132 3.132 0 011.779-.534 3.746 3.746 0 01.775.083 2.836 2.836 0 01.75.267 1.527 1.527 0 01.54.483 1.126 1.126 0 01.184.724 1.083 1.083 0 01-.222.642 1.61 1.61 0 01-.5.419 2.166 2.166 0 01-.654.235 3.267 3.267 0 01-.686.07 6.5 6.5 0 01-1.582-.2 3.861 3.861 0 01-1.359-.584z"/><path data-name="Path 330" d="M270.328 44.71a4.491 4.491 0 00-1.3-.451c-.489-.1-1-.178-1.512-.248a8.574 8.574 0 01-1.747-.356.85.85 0 01-.6-.826.927.927 0 01.146-.584 1.22 1.22 0 01.457-.419 2.856 2.856 0 01.667-.254 3 3 0 01.756-.089 4.758 4.758 0 01.788.064 2.494 2.494 0 01.718.216 1.5 1.5 0 01.521.4.913.913 0 01.2.616h1.963a2.382 2.382 0 00-.3-1.29 2.752 2.752 0 00-.908-.927 4.338 4.338 0 00-1.353-.565 7.046 7.046 0 00-1.626-.184 6.687 6.687 0 00-1.556.184 4.243 4.243 0 00-1.34.565 3.058 3.058 0 00-.94.953 2.509 2.509 0 00-.356 1.372 2.11 2.11 0 00.419 1.328 2.7 2.7 0 001.023.769 5.571 5.571 0 001.391.4c.508.083 1.016.159 1.525.222a6.182 6.182 0 011.595.381.938.938 0 01.616.934 1.273 1.273 0 01-.235.737 1.482 1.482 0 01-.553.451 2.516 2.516 0 01-.75.222 5.934 5.934 0 01-.819.064 3.724 3.724 0 01-.8-.089 2.478 2.478 0 01-.705-.28 1.734 1.734 0 01-.521-.457 1.165 1.165 0 01-.222-.667h-2.202a2.986 2.986 0 00.47 1.525 3.223 3.223 0 001.035.972 4.149 4.149 0 001.41.515 9 9 0 001.607.146 7.343 7.343 0 001.594-.172 4.2 4.2 0 001.372-.553 3.072 3.072 0 00.959-.959 2.555 2.555 0 00.368-1.4 2.3 2.3 0 00-1.255-2.234z"/><path data-name="Path 331" d="M288.369 47.149a4.891 4.891 0 01-2.63.718 4.706 4.706 0 01-1.995-.413 4.767 4.767 0 01-2.522-2.741 5.677 5.677 0 01-.349-2.007 6 6 0 01.349-2.1 4.829 4.829 0 01.991-1.645 4.484 4.484 0 011.531-1.074 5.03 5.03 0 011.995-.381 5.32 5.32 0 012.535.642 3.71 3.71 0 011.658 1.976h2.293a5.8 5.8 0 00-.94-2.109 6.289 6.289 0 00-1.525-1.493 6.579 6.579 0 00-1.912-.889 7.612 7.612 0 00-2.084-.3 7.76 7.76 0 00-2.8.5 6.772 6.772 0 00-2.312 1.455 7.168 7.168 0 00-1.588 2.312 8.421 8.421 0 00-.006 6.181 6.679 6.679 0 001.588 2.3 6.891 6.891 0 002.319 1.442 7.7 7.7 0 002.77.5 7.961 7.961 0 002.147-.3 6.554 6.554 0 001.957-.908 5.948 5.948 0 002.465-3.824h-2.312a3.827 3.827 0 01-1.626 2.147z"/><path data-name="Path 332" d="M302.783 41.07a4.945 4.945 0 00-1.645-.953 6 6 0 00-1.931-.318 6.2 6.2 0 00-1.931.3 4.981 4.981 0 00-1.69.927 4.674 4.674 0 00-1.194 1.588 5.187 5.187 0 00-.457 2.249 5.38 5.38 0 00.438 2.249 4.71 4.71 0 001.169 1.607 4.839 4.839 0 001.658.972 5.792 5.792 0 001.912.33 6.053 6.053 0 001.925-.318 4.758 4.758 0 002.865-2.573 5.981 5.981 0 00.032-4.479 4.558 4.558 0 00-1.137-1.588zm-.934 5.209a3 3 0 01-.673 1 2.636 2.636 0 01-.959.591 3.28 3.28 0 01-1.093.2 3.128 3.128 0 01-1.093-.2 2.637 2.637 0 01-.959-.591 2.935 2.935 0 01-.673-1 3.551 3.551 0 01-.254-1.4 3.356 3.356 0 01.267-1.391 2.836 2.836 0 01.692-.972 2.869 2.869 0 01.985-.565 3.594 3.594 0 011.124-.184 3.017 3.017 0 011.086.2 2.479 2.479 0 01.927.584 2.946 2.946 0 01.642.972 3.461 3.461 0 01.248 1.359 3.639 3.639 0 01-.254 1.4z"/><path data-name="Path 333" d="M322.805 48.414a.6.6 0 01-.368-.235.9.9 0 01-.146-.432 7.468 7.468 0 01-.019-.565v-3.133a8.365 8.365 0 00-.152-1.626 3.878 3.878 0 00-.54-1.353 2.9 2.9 0 00-1.042-.934 3.485 3.485 0 00-1.658-.349 4.583 4.583 0 00-2.007.407 3.456 3.456 0 00-1.537 1.429 2.7 2.7 0 00-1.175-1.379 3.729 3.729 0 00-1.772-.457 4.135 4.135 0 00-1.893.419 2.949 2.949 0 00-1.379 1.359 1.692 1.692 0 00-.3-1.067 1.771 1.771 0 00-.775-.565 2.687 2.687 0 00-1.061-.146 4.893 4.893 0 00-1.169.2v1.455a1.836 1.836 0 01.673.032.6.6 0 01.356.267 1.17 1.17 0 01.133.534c.013.222.019.5.019.826v6.734h2.249v-5.69a2.581 2.581 0 01.667-1.874 2.336 2.336 0 011.709-.705 1.791 1.791 0 011.544.686 2.967 2.967 0 01.483 1.849v5.73h2.185v-5.73a2.629 2.629 0 01.623-1.842 2.213 2.213 0 011.671-.692 1.648 1.648 0 011.455.686 3.029 3.029 0 01.451 1.791v3.437a3.272 3.272 0 00.248 1.372 1.746 1.746 0 00.705.8 2.3 2.3 0 001.105.286 5.328 5.328 0 001.423-.165v-1.373a2.063 2.063 0 01-.692 0z"/><path data-name="Path 334" d="M334.254 41.305a4.07 4.07 0 00-1.4-1.093 4.423 4.423 0 00-1.963-.407 4.162 4.162 0 00-1.982.489 3.123 3.123 0 00-1.391 1.493 2.258 2.258 0 00-.254-1.175 1.592 1.592 0 00-.667-.616 2.1 2.1 0 00-.934-.184 5.17 5.17 0 00-1.035.114v1.512a.983.983 0 01.623.064.659.659 0 01.3.381 1.921 1.921 0 01.1.616c.006.241.013.489.013.75v11.638h2.065v-6.384a2.583 2.583 0 001.353 1.239 5.535 5.535 0 001.88.3 4.235 4.235 0 001.931-.432 4.152 4.152 0 001.378-1.137 4.732 4.732 0 00.82-1.639 7.054 7.054 0 00.267-1.95 6.852 6.852 0 00-.279-1.963 4.56 4.56 0 00-.839-1.607zm-1.258 4.866a3 3 0 01-.5 1.042 2.33 2.33 0 01-.851.692 2.661 2.661 0 01-1.207.254 2.34 2.34 0 01-1.143-.267 2.484 2.484 0 01-.819-.724 3.191 3.191 0 01-.483-1.074 5.314 5.314 0 01-.152-1.29 3.4 3.4 0 01.654-2.179 2.33 2.33 0 011.944-.826 2.5 2.5 0 012.026.858 3.4 3.4 0 01.7 2.211 4.959 4.959 0 01-.165 1.3z"/><path data-name="Path 335" d="M347.161 48.274a.6.6 0 01-.318-.267.964.964 0 01-.114-.451c-.006-.178-.013-.381-.013-.616v-6.238a11.732 11.732 0 00-1.982-.667 8.909 8.909 0 00-2.065-.235 6.369 6.369 0 00-2.217.337 4.92 4.92 0 00-2.935 2.732 5.692 5.692 0 00-.451 2.211 6.626 6.626 0 00.28 1.944 4.607 4.607 0 00.826 1.575 3.783 3.783 0 001.395 1.051 4.7 4.7 0 001.963.381 3.846 3.846 0 002.033-.565 3.141 3.141 0 001.359-1.588 2.514 2.514 0 00.248 1.22 1.584 1.584 0 00.654.654 1.993 1.993 0 00.921.222 5.328 5.328 0 001.042-.089v-1.573a1.4 1.4 0 01-.623-.044zm-2.586-3.373a3.945 3.945 0 01-.686 2.262 2.2 2.2 0 01-1.893.889 2.465 2.465 0 01-2.033-.807 3.288 3.288 0 01-.667-2.16 4.281 4.281 0 01.267-1.442 3.424 3.424 0 01.667-1.105 2.887 2.887 0 01.991-.705 3.22 3.22 0 011.29-.248 6.462 6.462 0 011.01.089 4.477 4.477 0 011.055.318v2.9z"/><path data-name="Path 336" d="M359.803 48.261a1.07 1.07 0 01-.216-.769v-3.519a5.71 5.71 0 00-.2-1.69 3.421 3.421 0 00-.718-1.321 3.284 3.284 0 00-1.239-.858 4.88 4.88 0 00-3.678.114 2.853 2.853 0 00-1.359 1.359 1.661 1.661 0 00-.286-1 1.642 1.642 0 00-.75-.572 2.821 2.821 0 00-1.042-.184 5 5 0 00-1.175.146l.019 1.429a2.29 2.29 0 01.686.019.491.491 0 01.337.248 1.093 1.093 0 01.114.508c.006.216.013.489.013.819v6.854h2.228v-5.73a2.38 2.38 0 01.724-1.861 2.539 2.539 0 011.772-.654 2.3 2.3 0 011.677.642 2.386 2.386 0 01.673 1.81v3.519a3.146 3.146 0 00.254 1.391 1.614 1.614 0 00.718.75 2.278 2.278 0 001.067.235 6.824 6.824 0 001.321-.146v-1.41q-.715.086-.934-.133z"/><path data-name="Path 337" d="M369.777 39.989v4.174a10.749 10.749 0 01-.083 1.3 4.568 4.568 0 01-.349 1.309 2.694 2.694 0 01-.75 1 1.921 1.921 0 01-1.277.4 2.044 2.044 0 01-1.791-.788 3.859 3.859 0 01-.565-2.262v-2.865a2.942 2.942 0 00-.254-1.328 1.772 1.772 0 00-.718-.775 2.284 2.284 0 00-1.093-.286 5.578 5.578 0 00-1.391.146c0 .216 0 .47.013.756s.013.54.013.756c.534-.057.864.025 1 .248a1.993 1.993 0 01.2 1.042v2.331a5.792 5.792 0 001 3.634 3.74 3.74 0 003.17 1.258 3.942 3.942 0 001.823-.388 2.609 2.609 0 001.169-1.328v1.9a3.582 3.582 0 01-.318 1.607 2.539 2.539 0 01-.858.985 2.892 2.892 0 01-1.226.457 5.362 5.362 0 01-1.429.019 7.6 7.6 0 01-1.48-.318 8.158 8.158 0 01-1.347-.563l-.121 1.741a8.818 8.818 0 001.995.807 7.476 7.476 0 002.014.267 5.949 5.949 0 001.874-.318 4.217 4.217 0 002.611-2.478 5.752 5.752 0 00.388-2.211V39.99h-2.211z"/></g></g></svg>