<svg xmlns="http://www.w3.org/2000/svg" width="100" height="52.636"><g fill="#fff"><path data-name="Path 267" d="M96.306 26.165a9.553 9.553 0 01-.317-19.1 8.735 8.735 0 00-2.393-2.362 10.281 10.281 0 00-5.718-1.629c-4.17 0-8.633 5.554-12.57 10.455a67.485 67.485 0 01-5.53 6.358c-2.261 2.16-4.2 3.166-6.091 3.166a6.791 6.791 0 01-6.768-6.8 8.932 8.932 0 012.893-6.512 9.813 9.813 0 016.35-2.676 8.74 8.74 0 00-2.393-2.362 10.285 10.285 0 00-5.72-1.629c-4.168 0-8.631 5.554-12.568 10.455a67.5 67.5 0 01-5.53 6.359c-2.261 2.16-4.2 3.166-6.091 3.166a6.791 6.791 0 01-6.77-6.8 8.931 8.931 0 012.896-6.513 9.817 9.817 0 016.337-2.676 8.736 8.736 0 00-2.393-2.362 10.284 10.284 0 00-5.719-1.629c-5.2 0-9.742 5.654-14.139 11.122a38.565 38.565 0 00-2.742 3.987 15.18 15.18 0 01-3.869 4.716c-1.833 1.312-4.135 1.9-7.464 1.9v-3.076c5.508 0 6.583-1.726 8.724-5.164a41.1 41.1 0 012.956-4.289 65.748 65.748 0 017.363-8.2c3.125-2.741 6.126-4.073 9.172-4.073 5.609 0 10.213 3.063 12.016 7.995l.009.026a1.759 1.759 0 01-2.076 2.288 6.6 6.6 0 00-1.527-.175 6.47 6.47 0 00-6.472 6.122 3.714 3.714 0 003.7 3.724c1.025 0 2.36-.779 3.968-2.315a65.527 65.527 0 005.257-6.061 68.975 68.975 0 016.808-7.681c2.894-2.639 5.562-3.922 8.156-3.922 5.608 0 10.213 3.063 12.017 7.994l.009.026a1.76 1.76 0 01-2.075 2.289 6.616 6.616 0 00-1.538-.176 6.469 6.469 0 00-6.471 6.122 3.714 3.714 0 003.695 3.724c1.025 0 2.36-.779 3.968-2.315a65.52 65.52 0 005.257-6.061 68.962 68.962 0 016.81-7.679C82.617 1.283 85.286 0 87.881 0c5.606 0 10.208 3.061 12.012 7.989a1.759 1.759 0 01-2.07 2.32 6.568 6.568 0 00-1.526-.175 6.479 6.479 0 00.008 12.958z"/><path data-name="Path 268" d="M79.379 52.634a9.553 9.553 0 01-.317-19.1 8.732 8.732 0 00-2.392-2.361 10.283 10.283 0 00-5.719-1.629c-4.17 0-8.633 5.554-12.57 10.455a67.487 67.487 0 01-5.53 6.358c-2.261 2.16-4.2 3.166-6.091 3.166a6.791 6.791 0 01-6.77-6.8 8.933 8.933 0 012.9-6.515 9.817 9.817 0 016.35-2.677 8.731 8.731 0 00-2.392-2.361 10.283 10.283 0 00-5.719-1.629c-4.17 0-8.633 5.554-12.57 10.455a67.491 67.491 0 01-5.53 6.358c-2.261 2.16-4.2 3.166-6.091 3.166v-3.068c1.025 0 2.36-.779 3.968-2.315a65.514 65.514 0 005.257-6.061 68.964 68.964 0 016.808-7.681c2.894-2.639 5.563-3.922 8.158-3.922 5.61 0 10.214 3.064 12.015 8a1.759 1.759 0 01-2.067 2.314 6.614 6.614 0 00-1.535-.177 6.471 6.471 0 00-6.474 6.123 3.714 3.714 0 003.7 3.724c1.025 0 2.36-.779 3.968-2.315a65.516 65.516 0 005.243-6.067 68.963 68.963 0 016.808-7.681c2.894-2.639 5.563-3.922 8.158-3.922 5.61 0 10.214 3.064 12.015 8a1.759 1.759 0 01-2.065 2.314 6.583 6.583 0 00-1.53-.177 6.479 6.479 0 00.014 12.954z"/></g></svg>