<svg xmlns="http://www.w3.org/2000/svg" width="97.315" height="101"><g fill="#fff"><path data-name="Subtraction 17" d="M22.925 100.5H10.692l.6-26.108a13.115 13.115 0 0010.589.277l1.044 25.831zM11.84 50.507h0L12.992.5h5.889l2.011 49.612a13.136 13.136 0 00-9.045.393z" stroke="rgba(0,0,0,0)" stroke-miterlimit="10"/><path data-name="Path 248" d="M51.945 100.5H41.457l2.3-72.065h4.146z"/><path data-name="Subtraction 16" d="M84.089 100.5H71.856l.852-21.059a15.008 15.008 0 0010.529 0l.852 21.059zM73.856 51.075h0l.851-20.953a7.492 7.492 0 006.535-.022l.848 20.974a15.077 15.077 0 00-8.234 0zm6.834-34.644h0a7.5 7.5 0 00-5.434-.018L75.904.5h4.141l.644 15.928z" stroke="rgba(0,0,0,0)" stroke-miterlimit="10"/><path data-name="Path 250" d="M16.808 46.046a16.809 16.809 0 1016.81 16.81 16.808 16.808 0 00-16.81-16.81m0 29.345a12.537 12.537 0 1112.543-12.535 12.538 12.538 0 01-12.543 12.535"/><path data-name="Path 251" d="M77.973 46.046a19.343 19.343 0 1019.342 19.345 19.341 19.341 0 00-19.342-19.342m0 33.772a14.428 14.428 0 1114.428-14.43 14.432 14.432 0 01-14.428 14.43"/><path data-name="Path 252" d="M77.969 14.462a8.925 8.925 0 108.924 8.925 8.926 8.926 0 00-8.924-8.925m0 15.581a6.656 6.656 0 116.657-6.655 6.659 6.659 0 01-6.657 6.655"/></g></svg>