<svg xmlns="http://www.w3.org/2000/svg" width="76.891" height="100"><g fill="#fff"><path data-name="Path 258" d="M49.185 75.18a20.967 20.967 0 01-10.738-2.955A21.05 21.05 0 017.16 49.494a21.05 21.05 0 0111.948-36.78 21.051 21.051 0 0138.674 0 21.051 21.051 0 0111.95 36.781A21.082 21.082 0 0149.185 75.18zM11.991 46.19a2.79 2.79 0 011.021 3.137 15.447 15.447 0 0023.785 17.281 2.8 2.8 0 013.3 0 15.453 15.453 0 0023.782-17.28 2.8 2.8 0 011.018-3.136 15.454 15.454 0 00-9.084-27.961 2.8 2.8 0 01-2.668-1.932 15.452 15.452 0 00-29.4-.006 2.8 2.8 0 01-2.672 1.938 15.454 15.454 0 00-9.083 27.96z"/><path data-name="Path 259" d="M38.44 99.996a2.806 2.806 0 01-2.8-2.8V37.583a2.803 2.803 0 015.606 0v59.613a2.806 2.806 0 01-2.806 2.8z"/><path data-name="Path 260" d="M45.548 100H31.342a2.803 2.803 0 110-5.606h14.2a2.803 2.803 0 010 5.606z"/><path data-name="Path 261" d="M38.44 58.4a2.784 2.784 0 01-1.981-.823l-9.742-9.74a2.803 2.803 0 013.961-3.968l9.753 9.754a2.817 2.817 0 010 3.946l-.008.008a2.788 2.788 0 01-1.983.823z"/><path data-name="Path 262" d="M38.443 58.4a2.8 2.8 0 01-1.983-4.781l9.75-9.752a2.803 2.803 0 013.954 3.973l-9.738 9.738a2.788 2.788 0 01-1.983.822z"/></g></svg>