<svg xmlns="http://www.w3.org/2000/svg" width="100" height="77.701"><g fill="#fff"><path data-name="Path 253" d="M50.042 0l3.032 6.142 6.778.985-4.908 4.78 1.16 6.752-6.062-3.188-6.065 3.188 1.16-6.752-4.906-4.78 6.779-.985z"/><path data-name="Path 254" d="M9.81 34.784l-3.033 6.142L0 41.911l4.906 4.78-1.159 6.752 6.062-3.188 6.065 3.188-1.16-6.752 4.908-4.78-6.779-.985z"/><path data-name="Rectangle 229" d="M47.477 24.005h5.131v53.696h-5.131z"/><path data-name="Path 255" d="M20.899 50.373v5.562a23.391 23.391 0 0116.395 21.766h5.412a28.773 28.773 0 00-21.807-27.328"/><path data-name="Path 256" d="M90.191 34.784l3.032 6.142 6.778.985-4.908 4.78 1.16 6.752-6.062-3.188-6.065 3.188 1.16-6.752-4.906-4.78 6.779-.985z"/><path data-name="Path 257" d="M79.102 50.373v5.562a23.391 23.391 0 00-16.395 21.766h-5.412a28.774 28.774 0 0121.807-27.328"/></g></svg>