<svg xmlns="http://www.w3.org/2000/svg" width="91" height="100"><g fill="#fff"><path data-name="Rectangle 230" d="M25.65 3.149h6.223v64.103H25.65z"/><path data-name="Path 263" d="M91.001 62.003h-5.858a25.687 25.687 0 01-25.5 24.746v5.922a31.587 31.587 0 0031.358-30.668"/><path data-name="Path 264" d="M14.225 73.395a31.868 31.868 0 01-2.505-11.392h5.859a25.834 25.834 0 003.038 11.182z"/><path data-name="Rectangle 231" d="M16.817 62.003h71.254v6.223H16.817z"/><path data-name="Path 265" d="M55.832 100c-5.053 0-8.416-.72-10.583-2.265a7.006 7.006 0 01-2.875-6.156 8.433 8.433 0 016.9-8.285 6.483 6.483 0 00-1.042-.86 7.716 7.716 0 00-4.292-1.216c-3.08 0-6.606 4.389-9.717 8.261-3.445 4.287-6.419 7.99-9.959 7.99a6.177 6.177 0 01-6.159-6.18 8.349 8.349 0 016.909-7.995 6.489 6.489 0 00-1.042-.86 7.72 7.72 0 00-4.293-1.217c-3.079 0-6.6 4.388-9.715 8.26-3.445 4.288-6.421 7.992-9.962 7.992v-3.8c.454 0 1.3-.3 2.779-1.7a52.889 52.889 0 004.218-4.868 56.569 56.569 0 015.606-6.321c2.479-2.261 4.793-3.36 7.073-3.36a10.669 10.669 0 0110.387 6.931 2.093 2.093 0 01-.38 2.078l-.047.052a2.091 2.091 0 01-2.01.612h-.009a4.669 4.669 0 00-1.1-.125 4.6 4.6 0 00-4.613 4.329 2.369 2.369 0 002.356 2.377c.454 0 1.3-.3 2.777-1.7a52.873 52.873 0 004.218-4.867 56.564 56.564 0 015.607-6.322c2.48-2.262 4.794-3.361 7.075-3.361a10.667 10.667 0 0110.385 6.931 2.083 2.083 0 01-2.447 2.74 4.631 4.631 0 00-5.7 4.494 3.269 3.269 0 001.28 3.06c1.45 1.034 4.268 1.559 8.375 1.559z"/><path data-name="Path 266" d="M82.388 63.087h-6.295c0-18.541-5.076-32.917-15.087-42.727a46.149 46.149 0 00-11.626-8.244 54.729 54.729 0 00-11.429-4.183 52.565 52.565 0 00-12.234-1.636L25.574.004a57.567 57.567 0 0113.651 1.76 61.155 61.155 0 0112.817 4.642 51.41 51.41 0 0125.464 27.981c3.236 8.25 4.882 17.907 4.882 28.7z"/><path data-name="Line 22" d="M70.437 30.221H28.761v-6.295h41.676z"/></g></svg>